<?xml version="1.0" encoding="UTF-8"?>
<!DOCTYPE svg PUBLIC "-//W3C//DTD SVG 1.1//EN" "http://www.w3.org/Graphics/SVG/1.1/DTD/svg11.dtd">
<!-- Creator: CorelDRAW 2021 (64-Bit) -->
<svg xmlns="http://www.w3.org/2000/svg" xml:space="preserve" width="2in" height="2in" version="1.1" style="shape-rendering:geometricPrecision; text-rendering:geometricPrecision; image-rendering:optimizeQuality; fill-rule:evenodd; clip-rule:evenodd"
viewBox="0 0 2000 2000"
 xmlns:xlink="http://www.w3.org/1999/xlink"
 xmlns:xodm="http://www.corel.com/coreldraw/odm/2003">
 <defs>
  <style type="text/css">
   <![CDATA[
    .str0 {stroke:#FEFEFE;stroke-width:3;stroke-miterlimit:2.61313}
    .fil3 {fill:#20A9B3}
    .fil0 {fill:#22ABB3}
    .fil4 {fill:#D81967}
    .fil1 {fill:#D81C6A}
    .fil2 {fill:#EFCED9}
   ]]>
  </style>
 </defs>
 <g id="Layer_x0020_1">
  <metadata id="CorelCorpID_0Corel-Layer"/>
  <path class="fil0" d="M1494.54 1261.7c-8.84,2.46 -88.13,8.87 -86.48,-6.84 4.62,-31.8 55.16,-45.48 79.14,-17.02 4.35,5.16 9.58,15.8 7.33,23.87zm47.91 62.65c-9.8,-3.58 -42.54,-16.56 -48.76,-8.61 -7.2,9.22 -14.69,17.18 -28.25,18.46 -15,1.39 -32.74,-0.31 -44.29,-11.44 -6.42,-6.2 -13.07,-15.49 -13.07,-24.62 5.12,-0.01 9.62,0.02 14.69,0.05l126.24 -0.05c12.64,-94.91 -64.32,-148.22 -147.23,-107.9 -20.41,9.93 -38.08,30.22 -44.92,51.77 -17.19,54.19 0.18,103.92 52.77,127.5 42.01,18.84 117.49,4.68 132.82,-45.15z"/>
  <path class="fil1" d="M731.69 1308.9c-13.89,28.15 -67.56,27.02 -80.96,-2.33 -6.28,-13.72 -8.65,-26.49 -5.2,-42.57 8.41,-32.65 49.56,-50.69 76.3,-27.71 22.93,19.7 21.23,47.79 9.87,72.61zm-117.59 -100.09c-18.96,19.87 -27.32,47.79 -26.33,74.83 1.41,38.25 28.54,77.08 65.47,87.61 70.86,20.21 152.53,-19.54 142.59,-100.86 -11.49,-94.07 -124.08,-121.97 -181.72,-61.59z"/>
  <path class="fil0" d="M1122.81 1333.25c-12.31,6.35 -37.54,7.56 -46.81,-5.41 -11.15,-15.6 3.37,-31.11 16.97,-35.89 9.6,-2.98 43.52,-4.59 49.88,0.69 9.2,9.91 -8.09,34.45 -20.04,40.62zm-80.11 -91.73c0.47,0.32 25.21,-12.53 30.54,-14.33 9.44,-5.07 35.3,-7.06 46.22,-4.26 9.68,2.48 16.94,8.81 21.54,17.79 2.53,4.93 1.58,11.54 1.58,18.08 -31.72,-0.02 -61.3,-4.4 -90.38,9.59 -24.63,11.86 -39.27,37.44 -32.38,64.83 3.87,15.39 7.81,20.22 19.02,30.96 7.04,6.42 13.51,9.19 22.39,11.56 19.65,6.81 56.95,-1.24 73.13,-13.72 2.74,-2.11 13.24,-11.39 13.96,-11.45 3.37,0.37 4.19,7.92 8.07,13.23 13.14,17.96 35.24,9.71 53.38,9.71l0 -39.33c-5.69,-6.81 -9.95,-4.58 -9.91,-16.32l0.07 -52.51c-0.04,-59.41 -27.3,-89.7 -91.12,-88.48 -12.61,0.24 -73.99,13.75 -79.01,26.3 -0.81,2.03 3.87,14.87 5.22,18.97 0.63,1.91 7.51,19.26 7.66,19.38z"/>
  <path class="fil0" d="M1018.04 1165.2l0 -44.34c-9.55,-2.06 -220.04,-0.35 -221.44,0.22l0.2 45.04 82.93 0.34 0.19 206.39 54.14 -0.11c-0.35,-19.62 -1.12,-202.42 0.55,-205.48 4.37,-3.71 75.49,2.04 83.43,-2.06z"/>
  <path class="fil1" d="M69.22 1373.51l183.54 0 0 -49.17 -126.28 0 0.1 -194.19c0,-5.58 0.65,-12.29 -6.55,-12.29 -6.14,0 -10.72,0.18 -17.97,-0.06l-33.67 -0.19 0.84 255.89z"/>
  <path class="fil1" d="M445.31 1373.51l57.36 0c15.59,-22.59 67.87,-166.5 76.2,-193.37l-53.26 0c-15.01,34.37 -32.44,94.11 -49.98,134.38 -6.95,-3.12 -44.26,-116.82 -51.62,-134.38l-54.8 0c-0.48,5.79 72.78,188.57 76.1,193.37z"/>
  <path class="fil0" d="M1335.97 1330.23l-23.37 1.09c-10.85,-13.41 -6.13,-33.04 -6.13,-49.57l-0.16 -175.32c-9.46,-0.11 -52.67,-1.4 -54.78,1.62 -1.67,2.37 -0.78,163.85 -0.78,174.52 0,72.67 -5.5,99.6 75.78,92.93 18.11,-9.38 8.28,-25.7 9.44,-45.26z"/>
  <path class="fil1" d="M285.53 1373.51l53.47 0c-4.23,-27.19 3.68,-176.46 -1.07,-193.17 -16.32,0.36 -36.05,-0.2 -52.4,-0.2l0 193.37z"/>
  <path class="fil1" d="M286.28 1104.69c-8.66,15.89 -2.46,38.25 9.69,45.35 13.35,7.7 35.93,4.22 45.39,-9.94 7.22,-14.4 3.3,-33.99 -9.86,-43.61 -12.39,-9.06 -37.65,-5.32 -45.21,8.2z"/>
  <path class="fil2" d="M1018.04 1165.2c-7.94,4.09 -79.06,-1.65 -83.43,2.06 -1.67,3.06 -0.91,185.85 -0.55,205.48l-54.14 0.11 -0.19 -206.39 -82.93 -0.34 -0.2 -45.04c1.4,-0.57 211.89,-2.28 221.44,-0.22l-0.47 -3.17c-51.19,1.58 -114.22,0.17 -167.5,0.17 -9.29,0 -18.57,0 -27.86,0 -7.31,0 -21.3,-2.14 -26.29,1.57 -2.1,3.82 -0.74,40.08 -0.74,47.6 10.59,0 78.14,-1.39 82,0.74 3.44,4.64 1.57,17 1.57,23.83l0 181.9 57.36 0 0 -206.48 79.48 0c4.07,-0.34 1.65,0.38 2.45,-1.83z"/>
  <path class="fil3 str0" d="M1957.64 1153.3c-8.47,8.19 -37.61,45.74 -68.7,66.41 -31.66,20.97 -71.87,32.38 -109.78,27.57 -40.2,-5.03 -72.08,-29.15 -114.3,-12.93 -18.82,7.18 -27.29,14.07 -41.43,27.93 -6.11,6.03 -11.06,11.2 -17.73,16.8 -2.15,1.86 -3.52,4.16 -4.24,6.61 1.52,4.66 3.09,9.26 4.96,13.79 0.07,0 0.21,-0.07 0.29,-0.21 30.23,-21.61 36.12,-51.2 83.86,-54.58 42.57,-3.01 74.09,22.84 118.61,18.24 40.42,-4.1 67.06,-14.36 99.29,-39.06 13.28,-10.19 24.19,-21.61 35.83,-33.46 5.89,-5.89 10.98,-11.85 17.01,-17.6 1.29,-1.22 2.22,-2.58 2.94,-4.02 -1.94,-5.31 -4.16,-10.41 -6.61,-15.51zm-165.2 264.14c-15.66,-5.66 -34.54,-6.31 -52.7,-5.02 14.36,3.37 29.37,5.17 44.81,5.17 2.65,0 5.24,-0.08 7.9,-0.15zm-56.22 -364.8c10.98,0.72 32.45,-0.65 42.86,-4.16 2.01,-0.64 3.67,-1.29 4.96,-1.8 -16.52,0.08 -32.53,2.09 -47.81,5.96zm-39.49 14.72c22.69,5.6 45.65,8.97 68.85,8.69 15.58,-0.14 48.46,-11.2 59.17,-25.27 -6.89,-1.43 -13.86,-2.51 -21.04,-3.15 -2.08,1.07 -5.02,2.58 -9.26,4.52 -12,5.53 -21.76,7.33 -34.83,8.83 -9.69,1.07 -24.56,-2.51 -38.55,-3.8 -8.4,2.87 -16.52,6.24 -24.34,10.19zm159.31 336.8c-11.85,-0.14 -33.02,-0.28 -37.69,-1 -13.36,-1.94 -25.78,-6.61 -38.63,-10.34 -13.86,-4.02 -28.29,-5.31 -42.57,-3.09 -3.52,0.5 -24.64,7.33 -28.94,12.5 6.46,2.72 13.14,5.09 19.88,7.17 4.6,-1.29 9.13,-4.02 19.03,-5.16 25.27,-2.94 45.74,7.75 62.89,11.7 16.08,-2.08 31.45,-6.09 46.02,-11.77zm-194.79 -313.76c18.74,-2.72 21.26,-3.95 47.96,1 23.12,4.24 32.74,8.83 58.09,8.76 18.23,0 36.18,-5.59 51.76,-14.65 4.23,-2.44 26.13,-19.09 30.94,-27.71 -5.17,-1.8 -10.41,-3.38 -15.72,-4.81 -1.72,1.58 -3.58,3.67 -6.18,6.25 -5.96,6.03 -12.35,9.55 -19.38,13.86 -16.66,10.41 -36.69,11.34 -55.65,11.34 -18.24,0 -37.7,-7.54 -55.93,-10.48 -3.45,-0.57 -6.82,-1.15 -10.06,-1.43 -9.11,5.31 -17.8,11.27 -25.84,17.87zm262.35 268.95c-17.95,6.82 -30,15.22 -53.05,19.68 -73.1,14.21 -95.14,-17.89 -139.22,-13 -8.11,0.86 -42.86,15.44 -44.95,25.27 4.46,2.58 9.04,5.03 13.79,7.25 3.59,-1.65 6.32,-6.32 13.72,-10.12 36.54,-18.75 66.05,1.5 97.5,6.75 25.13,4.16 45.24,2.72 69.5,-2.88 15.87,-8.97 30.23,-20.1 42.72,-32.95zm-292.22 -238.22c1.23,-0.65 2.52,-1.22 3.95,-1.79 5.24,-1.94 10.62,-3.95 15.94,-5.67 10.41,-3.31 28.29,-4.24 39.13,-3.52 20.53,1.22 38.91,11.34 72.15,13.7 24.27,1.73 47.67,-4.44 68.5,-16.8 8.83,-5.3 16.21,-12.06 23.32,-19.45 4.67,-4.81 12.14,-14 16.52,-20.97 -4.53,-2.22 -9.13,-4.23 -13.86,-6.18 -2.37,3.09 -5.1,7.18 -5.74,7.9 -25.85,31.95 -64.19,45.59 -105.25,38.48 -19.61,-3.44 -31.66,-8.33 -51.34,-11.34 -5.3,-0.86 -15.14,-0.5 -20.89,-0.43 -7.18,0.07 -15.15,1.65 -22.54,4.16 -7.26,6.75 -13.86,14.07 -19.89,21.9zm47.81 265.8c8.97,-6.18 21.83,-30.73 66.85,-28.51 27.71,1.43 50.25,17.16 84.28,16.51 30.59,-0.57 78.4,-9.55 107.84,-32.45 7.97,-10.41 14.79,-21.61 20.39,-33.53 -7.32,5.38 -21.76,16.65 -24.85,18.66 -33.09,21.83 -80.04,36.62 -119.18,32.02 -63.33,-7.33 -95.42,-44.01 -146.75,19.39 3.73,2.72 7.54,5.38 11.41,7.9zm-69.57 -229.69c22.48,-11.91 34.04,-24.41 66.71,-24.7 35.61,-0.36 55,12.43 87.52,14.57 28.94,1.87 57,-3.58 81.2,-20.24 8.7,-6.03 38.41,-34.4 46.17,-48.68 -4.23,-2.74 -8.54,-5.31 -12.93,-7.76 -0.28,0.37 -0.64,0.73 -0.93,1.09 -13.35,16.65 -19.52,27.49 -38.48,40.42 -24.34,16.58 -53.91,23.55 -83.07,19.24 -33.52,-4.95 -54.93,-17.8 -90.96,-13.06 -14.72,1.94 -29.87,6.38 -41.72,14.65 -5.09,7.74 -9.62,15.94 -13.5,24.47zm-11.41 33.11c1,-0.93 2.08,-1.94 3.38,-3.09 20.02,-16.87 41.78,-27.71 68.06,-31.95 17.52,-2.72 33.31,0.22 50.19,4.74 16.44,4.37 29.22,8.9 46.59,10.62 31.16,3.17 63.83,-4.89 89.61,-22.83 5.81,-4.09 10.55,-8.18 16.01,-12.63 5.6,-4.53 9.26,-9.41 13.93,-14.72 8.24,-9.19 15.65,-19.24 23.75,-28.5 -3.8,-3.16 -7.74,-6.24 -11.84,-9.19l-0.07 0.14c-1.07,1.29 -2.08,2.51 -3.17,3.81 -16.01,19.09 -27.06,36.25 -49.68,50.04 -13.13,7.97 -25.56,13.21 -40.7,16.15 -67.2,12.78 -89.31,-24.56 -147.75,-10.41 -15.15,3.65 -26.57,9.26 -39.72,17.23 -4.73,2.87 -8.4,5.23 -11.34,7.39 -2.94,7.47 -5.39,15.22 -7.25,23.19zm63.18 183.66c4.24,-4.81 8.83,-9.19 12.85,-14 15.3,-18.45 37.76,-27.13 61.61,-24.63 17.23,1.87 30,6.96 46.3,11.42 20.25,5.45 31.23,5.81 51.99,5.74 28.36,-0.14 63.76,-12.92 88.09,-27.2 11.71,-6.82 23.41,-15.3 33.67,-24.06 2.08,-1.79 5.89,-4.89 9.13,-7.97 3.23,-8.83 5.74,-18.03 7.53,-27.5 -0.93,1.15 -2.08,2.67 -3.94,4.46 -2.51,2.37 -5.1,4.66 -7.54,7.11 -24.48,23.76 -58.15,44.87 -91.04,53.78 -21.83,5.95 -29.51,6.46 -51.77,6.46 -40.78,0.07 -64.47,-19.31 -98.3,-17.52 -16.44,0.93 -29.57,5.75 -42.64,15.58 -4.95,3.8 -21.19,21.4 -27.06,28.51 3.58,3.37 7.31,6.68 11.12,9.83zm-67.71 -152.28c8.47,-5.75 24.2,-21.47 29.94,-25.28 13.43,-8.75 28.65,-15.22 44.52,-17.66 43.36,-6.68 64.54,12.14 104.46,15.29 73.1,5.82 112.07,-35.25 153.93,-86.09 -3.37,-3.66 -6.95,-7.25 -10.69,-10.62 -0.65,0.86 -1.43,1.87 -2.3,2.87 -14.79,17.16 -29.8,36.33 -47.24,49.96 -27.5,21.54 -63.26,32.32 -98.07,28.3 -42.3,-4.88 -62.68,-23.98 -108.85,-13.5 -15.87,3.6 -30.87,10.78 -44.16,20.18 -9.69,6.82 -15.37,10.33 -18.95,14.65 -1.29,7.18 -2.22,14.5 -2.59,21.9zm382.04 10.55c-23.26,21.19 -37.19,38.56 -66.35,56.07 -27.78,16.87 -67.7,29.94 -100.37,27.5 -35.83,-2.59 -74.74,-24.05 -107.56,-17.53 -16.66,3.24 -29.86,10.2 -41.71,22.26 -5.46,5.53 -22.26,18.45 -23.83,28.22 2.65,3.08 5.38,6.17 8.19,9.12 3.51,-0.79 6.46,-5.68 10.48,-10.12 17.59,-19.18 30.66,-33.97 60.74,-35.19 38.2,-1.51 69.15,20.61 110,18.31 48.32,-2.74 97.43,-26.07 131.61,-60.17 8.61,-8.54 14.07,-12 17.37,-16.01 0.93,-7.4 1.43,-14.86 1.43,-22.48zm-381.46 17.73c26,-21.17 37.98,-42.21 76.39,-48.82 42.08,-7.18 68.71,12.85 109.42,16.51 33.89,3.08 72.08,-10.19 99.73,-29.5 7.9,-5.53 51.04,-46.75 62.18,-61.32 -3.24,-4.46 -6.61,-8.83 -10.13,-13 -1.22,1.36 -2.3,3.08 -3.44,4.52 -12.14,14.57 -36.48,41.58 -50.12,52.13 -30.79,23.77 -65.19,34.11 -104.04,31.38 -43.15,-3.08 -65.62,-26.56 -113.94,-14 -15.58,4.03 -32.38,13 -44.73,23.35 -12.35,10.26 -19.17,13.92 -22.26,21.1 0,5.96 0.36,11.84 0.93,17.66zm379.17 -46.52c-23.69,20.04 -38.56,41.5 -67.85,60.31 -28.15,17.95 -70.72,32.81 -104.25,29.51 -54.93,-5.46 -104.61,-44.52 -155.09,9.19 -6.61,6.96 -22.4,17.16 -24.05,27.57 2.22,3.45 4.53,6.82 6.96,10.13 4.81,-1.36 10.48,-9.48 13.5,-12.64 5.38,-5.74 10.7,-11.77 16.44,-17.16 12.85,-12.14 28.87,-19.38 46.6,-20.68 38.56,-2.87 72.23,22.26 114.8,18.6 57.59,-4.96 95.35,-27.93 135.26,-66.56 8.7,-8.4 15.87,-13.43 19.68,-20.02 -0.36,-6.18 -1,-12.28 -2.01,-18.24zm-27.43 -70.71c-12.92,11.05 -45.3,50.9 -66.19,65.05 -31.38,21.24 -70.29,31.81 -108.13,26.28 -41.93,-6.11 -68.43,-28.22 -113.58,-11.71 -19.25,7.04 -26.86,13.43 -41.5,26.86 -6.68,6.18 -13.28,9.04 -18.39,17.23 -0.72,1.07 -1.65,3.02 -2.44,5.24 0.65,3.8 1.43,7.69 2.3,11.41 0.21,0.07 0.5,0.07 0.72,0.07 8.69,0.14 38.48,-46.46 84.72,-51.04 40.2,-3.96 71.87,20.24 117.17,18.3 36.11,-1.43 70.72,-15.94 98.79,-38.41 12.71,-10.05 23.55,-21.82 34.4,-33.74 5.45,-5.96 13.13,-11.93 17.8,-17.95 1.08,-1.37 1.72,-2.88 2.15,-4.38 -2.44,-4.53 -5.03,-8.9 -7.83,-13.2zm20.9 43.65c-9.98,8.69 -35.26,43.15 -69.65,65.33 -31.02,19.96 -70.72,32.52 -107.7,28.37 -40.42,-4.6 -74.81,-27.86 -115.8,-14 -29.94,10.06 -38.13,28.72 -58.31,45.16 -2.8,2.3 -4.3,4.88 -5.09,7.47 2.01,4.23 4.16,8.33 6.45,12.42 8.77,-5.31 38.7,-51.26 81.64,-54.06 40.71,-2.67 74.38,23.41 118.32,18.37 38.48,-4.31 68.35,-15.07 99.29,-38.63 13.43,-10.26 24.12,-20.97 36.12,-32.81 5.81,-5.75 11.2,-11.85 17.09,-17.44 0.93,-0.86 1.72,-1.87 2.37,-2.88 -1.29,-5.89 -2.87,-11.63 -4.73,-17.3z"/>
  <g id="_2811394969632">
   <path class="fil4" d="M1953.56 1157.66c-11.66,12.93 -37.39,43.96 -64.66,62.05 -24.45,16.21 -54.04,26.71 -83.74,28.42 1.01,3.78 1.94,7.16 2.65,10.22l1.07 4.64 0.3 -0.03c40.44,-4.14 67.04,-14.37 99.28,-39.06 2.81,-2.16 5.52,-4.37 8.15,-6.63 5.85,-6.78 9.31,-10.83 16.71,-17.38 3.91,-3.46 7.51,-6.44 10.73,-9.16l0.28 -0.29c4.89,-4.95 9.24,-9.91 14.07,-14.77 0.76,-1.41 1.33,-2.87 1.71,-4.4 0.89,-3.66 0.67,-8.87 -6.54,-13.61zm-157.2 90.72c-5.76,-0.01 -11.51,-0.36 -17.2,-1.08 -40.19,-5.07 -72.07,-29.13 -114.3,-12.94 -16.59,6.36 -25.14,12.47 -36.65,23.35 0.75,6.33 1.76,12.61 2.9,18.77 14.3,-15.5 27.5,-29.5 59.45,-31.76 37.76,-2.67 66.86,17.33 104.01,18.7 1.39,-5.3 1.87,-10.23 1.81,-15.04zm3.64 15.11c1.61,-0.02 3.22,-0.08 4.86,-0.18 -1.45,-6.78 -3.72,-11.89 -2.86,-10.59 0,0 -0.64,4.88 -2,10.77z"/>
   <path class="fil4" d="M1890.48 1245.91c-23.81,13.96 -51.99,23.5 -79.84,24.83 1.28,5.66 1.76,7.91 1.76,7.91 0,0 45.72,0.84 76.37,-30.96l1.71 -1.78zm-84.56 24.97c-2.64,0.04 -5.28,-0 -7.9,-0.12 -0.99,3.07 -2.17,6.02 -3.55,8.32 -1.35,2.25 -2.91,4.24 -4.48,5.96 3.62,0.49 7.29,0.84 11.03,1 0.54,-0.54 1.06,-1.12 1.57,-1.74 2.88,-3.54 3.59,-8.48 3.33,-13.42zm-13.76 -0.52c-0.87,-0.08 -1.73,-0.17 -2.6,-0.26 -40.42,-4.55 -74.83,-27.81 -115.83,-13.99 -20.07,6.77 -30.37,17.37 -41.06,28.59 1.15,5.73 2.34,11.34 3.47,16.78 14.67,-14.83 36.05,-32.69 62.32,-34.4 29.49,-1.93 55.31,11.24 84.04,16.72 3.96,-3.77 7.3,-8.17 9.66,-13.45z"/>
   <path class="fil4" d="M1929.37 1149.67c-15.2,16.34 -35.11,38.36 -49.52,48.11 -23.56,15.95 -51.33,25.88 -79.7,27.52 0.87,5.57 1.93,10.56 3.02,15.07 35.26,-2.05 68.87,-16.36 96.35,-38.28 12.68,-10.12 23.51,-21.89 34.39,-33.81 4.12,-4.51 9.55,-9.02 13.98,-13.59 -4.5,-1.9 -10.52,-3.63 -18.52,-5.02zm-135.86 75.86c-7.27,0.09 -14.55,-0.38 -21.8,-1.44 -41.93,-6.11 -68.44,-28.24 -113.58,-11.74 -14.22,5.2 -22.09,10.05 -31.11,17.64 -0.3,6.4 -0.14,12.81 0.35,19.2 14.28,-12.13 33.19,-24.77 56.15,-27.04 38.76,-3.83 69.6,18.52 112.32,18.44 -0.56,-4.91 -1.47,-9.84 -2.33,-15.07z"/>
   <path class="fil4" d="M1791.11 1291.89c-2.39,-0.41 -4.78,-0.85 -7.15,-1.35 -1.85,1.42 -3.12,2.16 -3.12,2.16 0,0 4.67,0.82 10.27,-0.81zm-14.72 -3.04c-45.27,-10.82 -87.4,-31.81 -130.17,13.65 -2.09,2.22 -5.13,4.78 -8.35,7.57 1.33,6.86 2.43,13.39 3.03,19.5 0.65,-0.77 1.24,-1.46 1.75,-2 5.41,-5.73 10.73,-11.76 16.46,-17.17 12.89,-12.17 28.86,-19.41 46.61,-20.72 18.48,-1.36 35.84,3.71 53.6,8.95 5.91,-2.86 11.8,-5.98 17.07,-9.79z"/>
   <path class="fil4" d="M1627.89 1220.07c11.04,-8.7 23.63,-15.59 42.78,-18.87 42.05,-7.2 68.7,12.83 109.39,16.52 4.06,0.37 8.19,0.5 12.34,0.41 -0.63,-4.91 -1.07,-10.14 -1.04,-15.91 -5.6,0.17 -11.3,0.06 -17.1,-0.35 -43.12,-3.04 -65.59,-26.54 -113.93,-13.98 -9.16,2.38 -18.75,6.46 -27.61,11.52 -2.39,6.78 -3.94,13.69 -4.84,20.65zm171.28 -2.26c28.53,-2.14 58.13,-13.9 80.66,-29.61 5.21,-3.64 25.76,-22.81 42.32,-39.63 -5.53,-0.72 -11.84,-1.31 -19.02,-1.72 -9.03,9.56 -18.17,18.54 -24.8,23.65 -24.33,18.76 -50.88,29.17 -80.13,31.36 0.09,5.74 0.44,11.04 0.98,15.94z"/>
   <path class="fil4" d="M1764.29 1306.46c-2.09,-0.58 -4.19,-1.16 -6.28,-1.73 -2.97,1.33 -6.76,3.07 -11.46,5.31 -2.86,1.36 -5.59,2.82 -8.14,4.29 5.85,1.02 11.6,2.4 17.32,3.93 3.96,-3.86 6.77,-8.36 8.56,-11.79zm-13.72 -3.71c-17.07,-4.39 -33.77,-7.46 -49.13,-4.43 -16.6,3.28 -29.84,10.22 -41.69,22.27 -3.67,3.73 -12.5,10.83 -18.35,18.04 0,1.4 -0.02,2.78 -0.1,4.13 0,0 -2.3,8.92 4.06,14.73 2.99,-1.52 5.69,-5.79 9.24,-9.67 17.58,-19.22 30.62,-34.01 60.74,-35.2 5.14,-0.2 10.14,0.02 15.06,0.56 4.82,-2.79 9.68,-5.36 14.5,-7.72 1.84,-0.91 3.74,-1.8 5.67,-2.7z"/>
   <path class="fil4" d="M1637.3 1188.68c9.76,-4.79 20.16,-8.25 30.88,-9.91 43.37,-6.69 64.53,12.16 104.44,15.33 6.62,0.53 12.96,0.66 19.05,0.44 0.41,-5.78 1.19,-11.05 2.13,-15.7 -8.48,0.72 -17.05,0.62 -25.55,-0.36 -42.33,-4.88 -62.67,-23.99 -108.82,-13.48 -2.01,0.46 -4.01,0.97 -5.99,1.54 -6.27,6.07 -11.74,13.38 -16.14,22.13zm160.94 5.49c39.49,-3.17 68.16,-21.84 94.21,-47.77 -6.45,-0.2 -13.51,-0.27 -21.2,-0.2 -1.62,1.39 -3.25,2.74 -4.91,4.04 -19.3,15.11 -42.69,24.91 -66.95,28.02 -0.16,1.08 -0.3,2.2 -0.4,3.36 -0.4,4.39 -0.64,8.57 -0.75,12.56z"/>
   <path class="fil4" d="M1749.08 1323.27c-6.47,-1.58 -13.02,-2.76 -19.92,-3.15 -4.96,3.38 -8.03,5.91 -8.03,5.91 0,0 9.42,4.39 24.32,-1.09 1.27,-0.47 2.48,-1.03 3.63,-1.67zm-29.89 -3.11c-16.04,0.99 -29,5.81 -41.83,15.54 -4.28,3.24 -16.92,16.76 -24.07,24.97 10.6,0.82 27.83,-5.96 39.65,-18.58 7.78,-8.31 16.78,-15.59 26.25,-21.93z"/>
   <path class="fil4" d="M1667.32 1155.74c0.78,-0.14 1.56,-0.27 2.34,-0.39 17.5,-2.8 33.3,0.15 50.19,4.68 16.42,4.41 29.24,8.92 46.58,10.67 9.74,0.98 19.63,0.87 29.4,-0.29 2.52,-8.97 5.18,-14.13 5.18,-14.13 0,0 0.33,-0.99 -1.21,-2.57 -41.99,6.81 -66.07,-6.19 -93.94,-11.9 -13.55,2.3 -26.82,6.67 -38.54,13.94zm134.17 13.87c19.52,-3.15 38.39,-10.51 54.57,-21.77 0.68,-0.47 1.34,-0.94 1.98,-1.41 -6,0.16 -12.32,0.4 -19.03,0.72 0,0 -28.42,-3.55 -37.53,22.46z"/>
   <path class="fil4" d="M1724.92 1139.83c12.11,3.14 24.17,6.31 38.95,7.28 7.33,0.48 14.59,0.49 21.75,-0.03 -5.61,-1.64 -13.24,-3.35 -23.62,-4.99 -11.31,-1.8 -24.05,-2.8 -37.08,-2.26z"/>
  </g>
 </g>
</svg>
